<?xml version="1.0" standalone="yes"?>
<svg xmlns="http://www.w3.org/2000/svg" width="1200" height="400">
<path style="fill:#010101; stroke:none;" d="M0 0L0 105L22 105C22 115.205 19.3403 129.786 24.4174 138.996C31.1913 151.284 55.8939 153.089 63.7755 140.907C71.9339 128.297 67 102.545 67 88L89 88C89 94.3654 86.9366 104.865 92.2284 109.566C97.242 114.02 107.771 112 114 112L172 112L351 112L397 112C401.835 112 410.72 113.686 414.686 110.397C417.995 107.653 417.95 101.908 417.996 98C418.115 88.003 418 77.9977 418 68L439 68C439 78.1424 434.994 99.3046 440.858 107.867C444.673 113.437 453.183 112 459 112L509 112C507.857 85.4455 483.682 80.6578 462 88L462 68C485.565 64.5354 512.585 59.8614 525.099 87C528.799 95.025 529.414 103.464 531 112C536.819 112 547.691 114.091 552.471 110.258C556.79 106.794 558.339 99.8794 560.427 95C564.954 84.4242 572.169 73.4419 584 70.3511C615.514 62.1181 636.458 105.522 612.907 126.671C604.574 134.154 591.339 134.641 581 131.56C576.868 130.329 572.339 126.678 568 126.693C561.786 126.715 554.804 131.444 548 131.91C524.233 133.54 499.827 132 476 132C461.807 132 446.079 134.48 435 124C423.438 132.415 410.8 132 397 132L346 132L175 132C147.23 132 114.472 136.807 88 128C87.9609 142.17 82.9562 156.219 70 163.471C46.467 176.644 3.70644 167.999 1 137L0 137L0 400L813 400C804.559 388.963 793.034 380.465 784.745 369C763.828 340.065 754.948 301.954 764.154 267C770.196 244.06 782.17 225.738 797.576 208C802.285 202.578 811.686 189.717 819 196.078C821.651 198.384 827.944 203.132 827.944 207C827.944 211.715 818.841 218.543 815.87 222C807.108 232.195 800.053 243.528 795.014 256C781.586 289.236 787.476 327.527 807.004 357C812.915 365.921 820.324 376.98 830 382L815 400L1137 400C1134.33 396.215 1123 388.533 1123.63 383.961C1124.61 376.851 1139.14 366.209 1143.57 360C1154.52 344.657 1160.91 327.598 1163.57 309C1167.33 282.75 1158.72 254.581 1143.97 233C1138.52 225.023 1130.69 218.831 1125.3 211C1121.8 205.928 1132.69 194.249 1138 194.016C1142.68 193.811 1148.05 201.052 1151 204C1161.56 214.558 1171.05 226.599 1177.75 240C1205.32 295.13 1186.54 362.017 1138 399L1138 400L1200 400L1200 100L1199 100C1195.2 115.987 1180.89 124.632 1165 123.961C1155.79 123.572 1144.12 114.822 1136 115.838C1129.64 116.634 1124 121.161 1117 121.83C1091.15 124.3 1063.98 122 1038 122C1021.23 122 1004.54 124.019 989 117C988.997 146.878 970.363 160 942 160L942 137C948.233 136.507 956.269 136.001 960.581 130.891C965.56 124.991 965 114.285 965 107L965 55L990 55C990 65.2985 985.356 90.5448 995.105 96.9908C1001.02 100.899 1011.22 99 1018 99C1016.9 85.0417 1015.44 73.5027 1023.55 61C1036.16 41.5486 1067.8 38.1987 1082.61 57.0008C1092.05 68.9795 1091 84.6947 1091 99C1098.33 99 1112.65 101.733 1118.79 97.2577C1127.82 90.6672 1129.56 73 1136.53 64C1153.39 42.2205 1193.46 43.9013 1199 75L1200 75L1200 0L0 0z"/>
<path style="fill:#fdbf29; stroke:none;" d="M1033 2.65277C1016.14 8.00369 1026.46 33.9533 1043 28.2971C1060.12 22.4404 1050.15 -2.78809 1033 2.65277M1064 2.57251C1047.29 7.38937 1056.08 33.6545 1073 28.3472C1090.39 22.8925 1081.27 -2.40674 1064 2.57251M845 18L845 112C836.452 112 821.858 114.73 815.434 107.657C811.818 103.676 813.144 96.9467 811.96 92C809.167 80.3341 800.721 72.1697 789 69.669C773.631 66.3901 760.078 75.6221 753.273 89C749.963 95.507 748.521 104.746 742.812 109.682C737.669 114.128 724.408 113.293 721.028 106.956C718.399 102.028 720 93.4482 720 88L720 68L698 68C698 78.0387 702.188 100.464 696.142 108.772C691.119 115.673 671.878 113.151 668.179 105.985C664.186 98.2497 667 83.5936 667 75L645 75C645 94.9666 654.858 143.401 626 144L626 164C650.354 164 665.983 154.011 666 128C683.019 136.556 697.299 128.536 714 126.873C719.043 126.37 726.22 131.513 732 131.91C741.569 132.569 749.144 128.219 758 127.477C763.28 127.034 769.674 131.577 775 132.535C785.442 134.415 800.82 133.847 806 123C824.529 135.203 845.505 132 867 132L867 18L845 18M888 18L888 132L910 132L910 18L888 18M1018 99C1011.62 99 1002.84 100.547 997.015 97.5432C985.086 91.3955 990 66.2218 990 55L965 55L965 106C965 113.437 965.477 123.842 960.581 129.956C956.073 135.586 948.671 136.152 942 137L942 160C971.117 160 989 147.63 989 117C1001.59 124.908 1018.73 122 1033 122C1060.58 122 1088.45 123.167 1116 121.961C1123.13 121.648 1130.71 116.197 1137 116.378C1141.71 116.514 1147.37 120.619 1152 121.961C1164.22 125.503 1179.88 125.408 1189.96 116.671C1204.66 103.929 1204.29 71.71 1190.81 58.1844C1182.06 49.3981 1168.81 47.3913 1157 49.6188C1143.41 52.1817 1134.17 63.846 1129.01 76C1126.26 82.4874 1124.33 91.8163 1118.79 96.5663C1112.75 101.738 1098.51 99 1091 99C1091 84.1253 1092.34 67.0973 1081.79 55.0154C1067.49 38.649 1036.35 41.6013 1024.22 59.0038C1015.44 71.6009 1016.18 84.5962 1018 99M41.0039 60.7423C26.5403 66.34 36.5908 88.1173 50.9599 81.9908C64.0869 76.3937 54.4982 55.5196 41.0039 60.7423M462 68L462 88C483.958 82.3189 506.837 84.8211 509 112L460 112C453.855 112 445.869 113.275 441.514 107.867C434.944 99.7086 439 78.0742 439 68L418 68C418 77.688 422.529 103.947 413.853 110.397C409.546 113.598 401.083 112 396 112L350 112L172 112L114 112C107.339 112 97.3887 113.932 92.2284 108.772C87.2132 103.756 89 94.4765 89 88L67 88C67 102.545 71.7204 127.234 63.7755 139.96C55.5082 153.202 31.5937 151.127 24.4174 137.999C19.4783 128.964 22 114.99 22 105L0 105C0 123.213 -3.61643 146.44 12.0147 159.671C27.9358 173.148 63.8954 173.14 78.5324 157.7C85.9885 149.835 87.9931 138.417 88 128C98.2905 132.803 108.909 132 120 132L169 132L352 132L406 132C416.275 131.996 427.358 131.647 435 124C443.043 134.8 460.054 132 472 132C497.481 132 523.584 133.653 549 131.91C555.488 131.466 561.992 127.341 568 127.197C571.978 127.101 576.219 130.434 580 131.56C590.517 134.694 605.426 134.573 613.815 126.671C637.694 104.178 614.158 60.5928 582 70.6234C561.414 77.0446 565.791 99.6762 551.671 110.258C546.792 113.914 536.804 112 531 112C529.84 102.825 528.86 93.3919 524.623 85C512.218 60.4302 484.377 62.8824 462 68z"/>
<path style="fill:#010101; stroke:none;" d="M1066 99C1066 93.3651 1066.32 87.6208 1065.91 82C1065.71 79.2955 1065.18 76.4909 1064.03 74.0154C1053.51 51.2957 1024.9 91.5846 1051 98.4421C1055.71 99.6808 1061.16 99 1066 99M1146 95C1149.99 96.6576 1153.78 98.7376 1158 99.7608C1160.59 100.388 1163.34 100.957 1166 100.427C1185.83 96.4774 1172.7 60.0613 1155.09 76.2137C1152.99 78.1442 1151.28 80.5088 1149.91 83C1147.84 86.7288 1146.62 90.8112 1146 95M589 89.6682C571.838 94.5124 574.543 118.04 593.985 112.566C605.756 109.252 601.775 86.0625 589 89.6682M766 108C769.154 109.834 772.407 111.647 776 112.471C801.75 118.377 790.274 78.2334 774.185 92.3943C772.407 93.9591 771.053 95.9465 769.904 98.0008C768.149 101.141 766.945 104.546 766 108z"/>
<path style="fill:#fdbf29; stroke:none;" d="M707 145.569C692.192 147.538 694.935 170.433 710 168.796C724.904 167.175 722.273 143.539 707 145.569M406.004 146.653C390.952 151.413 400.113 174.041 414.995 168.258C428.856 162.871 419.831 142.28 406.004 146.653M432.015 146.653C417.069 151.441 426.258 173.985 440.995 168.258C454.855 162.872 446.019 142.165 432.015 146.653M484.015 146.742C469.854 152.317 480.113 173.773 493.985 167.991C508.225 162.054 498.168 141.171 484.015 146.742z"/>
<path style="fill:#ffffff; stroke:none;" d="M830 382C790.198 351.674 777.657 294.629 798.029 250C803.428 238.172 811.494 227.593 820.17 218C822.728 215.171 829.758 210.427 828.654 206C827.26 200.405 816.653 190.409 811 194.333C796.221 204.592 784.249 221.578 775.427 237C754.922 272.848 756.615 318.968 775.258 355C781.967 367.965 791.667 379.77 802 389.996C804.775 392.743 809.66 398.915 813.999 398.808C819.51 398.672 827.897 386.51 830 382M1137 400C1191.85 368.292 1205.67 283.416 1173.94 232C1165.92 219.007 1154.58 201.905 1141 194.207C1135.52 191.101 1124.65 201.765 1123.35 207C1122.37 210.909 1127.65 214.601 1129.99 217C1136.76 223.96 1142.78 231.687 1147.8 240C1161.27 262.317 1167.24 289.252 1162.39 315C1158.87 333.67 1150.71 350.024 1139.11 365C1135.6 369.534 1122.16 378.903 1122.92 384.91C1123.55 389.877 1133.53 396.532 1137 400M324 200L324 243C312.172 240.803 300.718 240.911 289 243.896C253.726 252.882 245.952 295.401 255.036 326C262.298 350.46 285.599 363.817 310 353.535C316.875 350.639 321.826 345.174 327 340L328 354L352 354L352 200L324 200z"/>
<path style="fill:#01afb1; stroke:none;" d="M868 200L868 354L896 354L896 304C896 297.075 894.414 288.098 898.264 282C903.276 274.061 916.398 259.818 926.957 266.742C934.769 271.866 934 282.866 934 291L934 354L961 354L961 296C961 284.382 962.28 272.131 958.3 261C948.144 232.591 912.55 238.215 895 255L896 200L868 200z"/>
<path style="fill:#ffffff; stroke:none;" d="M175 241.428C130.629 247.799 112.692 312.39 144.174 343.826C155.444 355.08 174.655 358.77 190 356.572C201.744 354.889 213.505 350.829 221.826 341.96C243.017 319.374 243.642 271.683 219 251.329C207.247 241.621 189.725 239.314 175 241.428M471 352L471 329C453.164 334.666 424.361 341.033 410.684 323.96C406.298 318.485 405.943 312.391 404 306L477 306C477 294.065 478.35 281.44 474.301 270C462.973 237.993 418.065 231.724 394.09 253.44C372.335 273.145 369.683 319.074 389.184 340.996C398.208 351.14 409.984 354.803 423 356.575C439.224 358.783 455.097 354.141 471 352M534 257L532 243L507 243L507 354L535 354L535 306C535 299.387 533.335 290.072 536.303 284C542.019 272.307 564.525 253.041 571.751 274C573.196 278.193 573 282.634 573 287L601 287C601 274.229 600.155 259.89 590.815 250.093C576.572 235.154 543.777 238.309 534 257M626 328C626 333.344 623.415 348.279 627.603 352.062C632.549 356.528 644.766 355.566 651 356.17C673.313 358.329 710.187 357.331 715.532 329C720.413 303.128 700.31 292.995 679 286.859C672.381 284.953 653.441 280.208 656.786 270.015C662.516 252.556 696.494 265.307 708 267L708 244C687.191 242.356 666.134 237.21 646 246.043C628.682 253.641 619.56 275.321 630.85 291.999C643.189 310.225 670.892 303.328 683.566 319.105C689.72 326.765 680.046 333.657 673 334.854C656.144 337.719 642.099 329.614 626 328z"/>
<path style="fill:#01afb1; stroke:none;" d="M1056 341L1057 341L1056 397L1083 397L1083 241C1077.2 242.125 1070.93 244.485 1065 244.41C1046.22 244.175 1030.39 238.208 1012 246.89C978.766 262.58 971.699 323.267 999.015 347.815C1013.67 360.987 1046.58 361.036 1056 341z"/>
<path style="fill:#ffffff; stroke:none;" d="M105 326C90.4867 328.143 76.7965 336.059 62 329.471C38.76 319.122 37.798 282.273 59 269.479C73.8719 260.505 89.0113 268.448 104 272L104 245C89.47 243.124 74.7341 240.012 60 242.615C48.9539 244.567 38.133 249.05 30.0903 257.09C6.12031 281.052 7.9185 332.254 39 349.485C53.219 357.368 72.3374 357.559 88 354.919C92.4393 354.171 101.148 353.512 103.972 349.49C107.413 344.59 105 331.863 105 326z"/>
<path style="fill:#010101; stroke:none;" d="M894 256L895 257L894 256M405 286L450 286C448.739 279.307 447.962 272.229 442.812 267.214C426.87 251.687 407.317 268.808 405 286M304 263.465C281.804 267.487 278.889 293.578 281.289 312C282.739 323.127 288.979 334.979 302 332.671C325.34 328.533 324 303.648 324 286C324 281.13 325.976 270.62 322.972 266.564C319.879 262.388 308.522 262.645 304 263.465M1035 263.468C1013.28 267.563 1009.8 293.931 1012.75 312C1014.54 322.955 1019.72 334.752 1033 332.786C1056.56 329.299 1056 303.499 1056 286C1056 281.13 1057.98 270.62 1054.97 266.564C1051.75 262.217 1039.69 262.582 1035 263.468M178 265.468C146.487 271.527 152.053 339.326 188 332.532C219.655 326.55 215.084 258.339 178 265.468z"/>
</svg>
