<!DOCTYPE svg PUBLIC "-//W3C//DTD SVG 1.1//EN" "http://www.w3.org/Graphics/SVG/1.1/DTD/svg11.dtd">
<!-- Uploaded to: SVG Repo, www.svgrepo.com, Transformed by: SVG Repo Mixer Tools -->
<svg fill="#ffffff" height="800px" width="800px" version="1.1" id="Capa_1" xmlns="http://www.w3.org/2000/svg" xmlns:xlink="http://www.w3.org/1999/xlink" viewBox="0 0 489.5 489.5" xml:space="preserve" stroke="#ffffff">
<g id="SVGRepo_bgCarrier" stroke-width="0"/>
<g id="SVGRepo_tracerCarrier" stroke-linecap="round" stroke-linejoin="round"/>
<g id="SVGRepo_iconCarrier"> <g> <path d="M370.75,0h-252v40.3h-86.2v66.2c0,47.6,38.6,86.2,86.2,86.2h11.2c10.8,23.8,28.7,43.6,51,56.8 c23.4,13.8,37.2,39.6,37.2,66.8v52.3h-30.9c-9.5,0-17.3,7.7-17.3,17.3v22.7h-26.4v80.9h202.3v-80.9h-26.4v-22.7 c0-9.5-7.7-17.3-17.3-17.3h-30.9v-52.3c0-27.2,13.8-53,37.2-66.8c22.3-13.1,40.3-33,51-56.8h11.3c47.6,0,86.2-38.6,86.2-86.2V40.4 h-86.2V0z M118.75,149.1c-23.5,0-42.6-19.1-42.6-42.6V84h42.6v56.8c0,2.8,0.1,5.5,0.3,8.2h-0.3V149.1z M279.75,412.5v43.3h-70 v-43.3H279.75z M252.05,145l-22.1,22l-22-22.1l-21.2-21.4l22.1-22l21.2,21.3l50.7-50.3l22,22.1L252.05,145z M413.35,84v22.5 c0,23.5-19.1,42.6-42.6,42.6h-0.3c0.2-2.7,0.3-5.5,0.3-8.2V84H413.35z"/> </g> </g>
</svg>