<!DOCTYPE svg PUBLIC "-//W3C//DTD SVG 1.1//EN" "http://www.w3.org/Graphics/SVG/1.1/DTD/svg11.dtd">
<!-- Uploaded to: SVG Repo, www.svgrepo.com, Transformed by: SVG Repo Mixer Tools -->
<svg fill="#ffffff" height="800px" width="800px" version="1.1" id="Capa_1" xmlns="http://www.w3.org/2000/svg" xmlns:xlink="http://www.w3.org/1999/xlink" viewBox="0 0 489 489" xml:space="preserve" stroke="#ffffff">
<g id="SVGRepo_bgCarrier" stroke-width="0"/>
<g id="SVGRepo_tracerCarrier" stroke-linecap="round" stroke-linejoin="round"/>
<g id="SVGRepo_iconCarrier"> <g> <g> <path d="M75.9,267v-34.1c0-5.1,4.1-9.2,9.2-9.2h34.1c5.1,0,9.2,4.1,9.2,9.2V267c0,5.1-4.1,9.2-9.2,9.2H85.1 C80,276.1,75.9,272,75.9,267z M156.4,276.1h34.1c5.1,0,9.2-4.1,9.2-9.2v-34.1c0-5.1-4.1-9.2-9.2-9.2h-34.1c-5.1,0-9.2,4.1-9.2,9.2 v34.1C147.3,272,151.4,276.1,156.4,276.1z M227.7,276.1h34.1c5.1,0,9.2-4.1,9.2-9.2v-34.1c0-5.1-4.1-9.2-9.2-9.2h-34.1 c-5.1,0-9.2,4.1-9.2,9.2v34.1C218.6,272,222.7,276.1,227.7,276.1z M156.4,345.6h34.1c5.1,0,9.2-4.1,9.2-9.2v-34.1 c0-5.1-4.1-9.2-9.2-9.2h-34.1c-5.1,0-9.2,4.1-9.2,9.2v34.1C147.3,341.5,151.4,345.6,156.4,345.6z M227.7,345.6h34.1 c5.1,0,9.2-4.1,9.2-9.2v-34.1c0-5.1-4.1-9.2-9.2-9.2h-34.1c-5.1,0-9.2,4.1-9.2,9.2v34.1C218.6,341.5,222.7,345.6,227.7,345.6z M299.1,345.6h34.1c5.1,0,9.2-4.1,9.2-9.2v-34.1c0-5.1-4.1-9.2-9.2-9.2h-34.1c-5.1,0-9.2,4.1-9.2,9.2v34.1 C289.9,341.5,294,345.6,299.1,345.6z M85.1,345.6h34.1c5.1,0,9.2-4.1,9.2-9.2v-34.1c0-5.1-4.1-9.2-9.2-9.2H85.1 c-5.1,0-9.2,4.1-9.2,9.2v34.1C75.9,341.5,80,345.6,85.1,345.6z M227.7,415h34.1c5.1,0,9.2-4.1,9.2-9.2v-34.1 c0-5.1-4.1-9.2-9.2-9.2h-34.1c-5.1,0-9.2,4.1-9.2,9.2v34.1C218.6,410.9,222.7,415,227.7,415z M156.4,415h34.1 c5.1,0,9.2-4.1,9.2-9.2v-34.1c0-5.1-4.1-9.2-9.2-9.2h-34.1c-5.1,0-9.2,4.1-9.2,9.2v34.1C147.3,410.9,151.4,415,156.4,415z M299.1,276.1h34.1c5.1,0,9.2-4.1,9.2-9.2v-34.1c0-5.1-4.1-9.2-9.2-9.2h-34.1c-5.1,0-9.2,4.1-9.2,9.2v34.1 C289.9,272,294,276.1,299.1,276.1z M370.4,345.6h34.1c5.1,0,9.2-4.1,9.2-9.2v-34.1c0-5.1-4.1-9.2-9.2-9.2h-34.1 c-5.1,0-9.2,4.1-9.2,9.2v34.1C361.3,341.5,365.4,345.6,370.4,345.6z M299.1,415h34.1c5.1,0,9.2-4.1,9.2-9.2v-34.1 c0-5.1-4.1-9.2-9.2-9.2h-34.1c-5.1,0-9.2,4.1-9.2,9.2v34.1C289.9,410.9,294,415,299.1,415z M0,435.5V106.2 c0-29.5,24-53.5,53.5-53.5h60V19.5C113.5,8.7,122.2,0,133,0h30.5C174.3,0,183,8.7,183,19.5v33.1h123V19.5C306,8.7,314.7,0,325.5,0 H356c10.8,0,19.5,8.7,19.5,19.5v33.1h60c29.5,0,53.5,24,53.5,53.5v329.4c0,29.5-24,53.5-53.5,53.5h-382C24,489,0,465,0,435.5z M41.4,435.5c0,6.7,5.5,12.2,12.2,12.2h381.9c6.7,0,12.2-5.5,12.2-12.2V191.6H41.4V435.5z"/> </g> </g> </g>
</svg>